<svg width="135" height="152" viewBox="0 0 135 152" fill="none" xmlns="http://www.w3.org/2000/svg">
<path fill-rule="evenodd" clip-rule="evenodd" d="M56.666 142.863V9.12108C56.666 9.12108 78.0723 6.28693 91.1906 9.40056C101.55 11.8594 108.69 12.8072 116.125 20.4292C122.382 26.8441 123.206 32.6001 126.195 41.048C134.939 65.7632 136.099 83.9059 126.195 108.179C123.123 115.707 121.43 120.24 116.125 126.4C108.6 135.14 102.19 138.757 91.1906 142.224C78.3317 146.278 56.666 142.863 56.666 142.863ZM97.9037 28.5809C89.2966 22.9246 71.5308 28.5809 71.5308 28.5809V117.769C71.5308 117.769 88.9904 122.93 97.9037 117.769C102.487 115.116 104.37 112.456 107.494 108.179C123.078 86.841 118.523 64.5439 107.494 41.048C104.884 35.4876 103.037 31.9543 97.9037 28.5809Z" fill="white" stroke="black" stroke-width="2"/>
<path d="M55.7593 142.671V18.8974V9.33202C55.7593 9.33202 12.417 -9.18767 3.16908 9.15013C-1.49475 18.3981 3.16908 35.6719 3.16908 35.6719C3.16908 35.6719 23.9721 27.6586 31.731 35.6719C39.2436 43.4308 39.2436 55.5682 31.731 63.3271C23.9721 71.3404 3.16908 63.3271 3.16908 63.3271V91.6623C3.16908 91.6623 24.5504 83.1269 31.731 91.6623C37.7718 98.8429 37.7718 108.51 31.731 115.691C24.5504 124.226 3.16908 115.691 3.16908 115.691C3.16908 115.691 -1.71135 133.457 3.16908 142.892C12.6046 161.134 55.7593 142.671 55.7593 142.671Z" fill="#6AFC53" stroke="black" stroke-width="2"/>
<rect x="54.8525" y="10" width="2.72018" height="132" fill="white"/>
</svg>
