<svg width="33" height="32" viewBox="0 0 33 32" fill="none" xmlns="http://www.w3.org/2000/svg">
<path d="M26.1106 24.2925C26.2036 24.3854 26.2773 24.4957 26.3275 24.6171C26.3778 24.7385 26.4037 24.8686 26.4037 25C26.4037 25.1314 26.3778 25.2615 26.3275 25.3829C26.2773 25.5043 26.2036 25.6146 26.1106 25.7075C26.0177 25.8004 25.9074 25.8741 25.786 25.9244C25.6646 25.9747 25.5345 26.0006 25.4031 26.0006C25.2717 26.0006 25.1416 25.9747 25.0202 25.9244C24.8989 25.8741 24.7886 25.8004 24.6956 25.7075L16.4031 17.4138L8.11064 25.7075C7.923 25.8951 7.66851 26.0006 7.40314 26.0006C7.13778 26.0006 6.88328 25.8951 6.69564 25.7075C6.508 25.5199 6.40259 25.2654 6.40259 25C6.40259 24.7346 6.508 24.4801 6.69564 24.2925L14.9894 16L6.69564 7.70751C6.508 7.51987 6.40259 7.26537 6.40259 7.00001C6.40259 6.73464 6.508 6.48015 6.69564 6.29251C6.88328 6.10487 7.13778 5.99945 7.40314 5.99945C7.66851 5.99945 7.923 6.10487 8.11064 6.29251L16.4031 14.5863L24.6956 6.29251C24.8833 6.10487 25.1378 5.99945 25.4031 5.99945C25.6685 5.99945 25.923 6.10487 26.1106 6.29251C26.2983 6.48015 26.4037 6.73464 26.4037 7.00001C26.4037 7.26537 26.2983 7.51987 26.1106 7.70751L17.8169 16L26.1106 24.2925Z" fill="black"/>
</svg>
